/* XPM */
static char *fb4e43cf9fa64fbb8a3303127f0bf3af_2[] = {
/* columns rows colors chars-per-pixel */
"32 32 171 2 ",
"   c None",
".  c #010E36",
"X  c #010F38",
"o  c #041136",
"O  c #0C1635",
"+  c #0F1834",
"@  c #04123B",
"#  c #0A173B",
"$  c #07183D",
"%  c #0C193D",
"&  c #151D33",
"*  c #191D32",
"=  c #121F3F",
"-  c #1B2135",
";  c #1C2338",
":  c #3A352D",
">  c #232531",
",  c #2A2A30",
"<  c #463828",
"1  c #42372B",
"2  c #4C422C",
"3  c #584729",
"4  c #624C26",
"5  c #625227",
"6  c #635128",
"7  c #071742",
"8  c #0C1C42",
"9  c #0B1E4A",
"0  c #061944",
"q  c #101D40",
"w  c #0E224C",
"e  c #142145",
"r  c #182447",
"t  c #13264C",
"y  c #1B2749",
"u  c #0F2957",
"i  c #0F2552",
"p  c #102651",
"a  c #132A55",
"s  c #1C2E51",
"d  c #142E5A",
"f  c #1E3254",
"g  c #17335F",
"h  c #1A325A",
"j  c #212D4F",
"k  c #242D40",
"l  c #232F51",
"z  c #243254",
"x  c #283455",
"c  c #213856",
"v  c #253A5D",
"b  c #2E3F5F",
"n  c #313D5B",
"m  c #1A3662",
"M  c #1C3A67",
"N  c #1E3C69",
"B  c #273F64",
"V  c #34415E",
"C  c #1F416D",
"Z  c #2A4365",
"A  c #2F4A67",
"S  c #22416F",
"D  c #2A456B",
"F  c #274064",
"G  c #354563",
"H  c #3B4663",
"J  c #3F4A65",
"K  c #324B6C",
"L  c #37516F",
"P  c #234472",
"I  c #2E4E76",
"U  c #264A79",
"Y  c #2A4F7D",
"T  c #2C517F",
"R  c #395474",
"E  c #3B5979",
"W  c #434D6A",
"Q  c #424C65",
"!  c #49536F",
"~  c #4B5570",
"^  c #4E5973",
"/  c #405F7B",
"(  c #525B75",
")  c #525F78",
"_  c #58647C",
"`  c #A0741B",
"'  c #816721",
"]  c #2B5583",
"[  c #2D5B8C",
"{  c #315D8D",
"}  c #386698",
"|  c #3D6A98",
" . c #366799",
".. c #3D72A3",
"X. c #3F75A8",
"o. c #4C6383",
"O. c #5E6A82",
"+. c #597798",
"@. c #547E9E",
"#. c #626C83",
"$. c #677085",
"%. c #60798D",
"&. c #637B99",
"*. c #747D92",
"=. c #4076A9",
"-. c #457AA9",
";. c #417EB3",
":. c #7A8194",
">. c #7D8699",
",. c #748899",
"<. c #4480B5",
"1. c #4883B7",
"2. c #4787BD",
"3. c #4B87B9",
"4. c #5592BF",
"5. c #6C95B9",
"6. c #7797B5",
"7. c #79A8BC",
"8. c #4F92C9",
"9. c #5396CA",
"0. c #569DD3",
"q. c #719EC3",
"w. c #56A2DB",
"e. c #59A2DA",
"r. c #63ABDC",
"t. c #69AFDE",
"y. c #65A6D3",
"u. c #75B3D4",
"i. c #5CAAE4",
"p. c #5FAEE8",
"a. c #64B2EA",
"s. c #77BAE9",
"d. c #6CBEF4",
"f. c #65BAF5",
"g. c #7DC1EE",
"h. c #7FCEF9",
"j. c #79C5F5",
"k. c #818A9B",
"l. c #888F9F",
"z. c #848FA0",
"x. c #8C94A3",
"c. c #8B9AAA",
"v. c #9298A7",
"b. c #939BAB",
"n. c #8399B1",
"m. c #9DA2AE",
"M. c #9FAEBE",
"N. c #9EA4B2",
"B. c #A6ADB9",
"V. c #A5B2BD",
"C. c #80B2C6",
"Z. c #85B9DE",
"A. c #B5BFC8",
"S. c #AEC6CF",
"D. c #A2D0DA",
"F. c #B4D6DB",
"G. c #81C6EC",
"H. c #8CC7E9",
"J. c #93C3E5",
"K. c #93D0EB",
"L. c #84C7F1",
"P. c #81D0F7",
"I. c #8CD1F6",
"U. c #91D7F8",
"Y. c #92DCF9",
"T. c #ACDFFD",
"R. c #A4DBF7",
"E. c #9EE3F9",
"W. c #A8E8F7",
"Q. c #A5E7F8",
"!. c #C3CAD2",
/* pixels */
"                                                                ",
"                                                                ",
"                                                                ",
"                        o o X X o X X X                         ",
"                    o 0 0 t s x W $ - & X X                     ",
"                  o @ h A E F s V M D = % $ o o                 ",
"              o X 7 F R s e X 8 8 @ i M B w 7 o X               ",
"            . L K s / c X W N.  !.n.B 9 U 0 : 5 O X             ",
"            X v Z R 8 $ _             T a S 4 ` * X o           ",
"          X O o t f j W               Z.u d % * & O X           ",
"        X O ' 5 q k.                    6.E 9 9 k O X X         ",
"        X o 4 < J x.#.^ ^ _ k.A.      B.>.o.a $ @ 2 - X         ",
"        X > + X x #.v.B.B.x.$.V G ) H ( :.v.b.#.e 1 * X         ",
"      o X & O O.        T.  M.J n z.      J.5.+.B @ M @ X       ",
"      o x $ _     g.9.<.;.U G c.    T.s...M I &.*.l w o X       ",
"      o % e S.  L.[ $ X s ,.      j.8.C P q.      V.8 w o       ",
"      o 7 f     K.D z %.F.    I.a. .d | H.R.s.L.    b 0 o       ",
"      o $ t D.            U.d.8.C m 4.I.G.| M y.    v 7 o       ",
"        o $ @.W.E.E.Y.h.d.w.{ a ] r.P.t.T I 7.    C.t 8 X       ",
"        8 t w -.r.i.w.2.] a m 1.d.j.9.S } G.  Q.u.M w 8         ",
"        X M a o w g d a P =.p.d.a...p { e.0.3.{ p $ p o         ",
"          @ - > o P 1.e.f.f.i.<.C d g M N N p . % f X o         ",
"          X o * 6 ; d U ] P a o o Y =.X.} P 0 : 3 X X           ",
"            X O 3 & @ o . . . + , X o @ o 8 & , > X             ",
"              X X X 0 ^ ! H ! n Q ~ ! ~ ( e & + X               ",
"                X X 8 b.k.v.:.B.l.m.>.*.m.z X X                 ",
"                  X 8 #.j #.r y r l e ~ H o X                   ",
"                      % o % X X X X X # o                       ",
"                            X X X X                             ",
"                                                                ",
"                                                                ",
"                                                                "
};
